ply
format ascii 1.0
comment https://github.com/mikedh/trimesh
element vertex 10
property float x
property float y
property float z
element face 16
property list uchar int vertex_indices
end_header
10.19999981 10.00000000 0.00000000
25.06999969 10.00000000 26.48999977
14.86999989 0.00000000 26.48999977
4.67000008 10.00000000 26.48999977
14.86999989 20.00000000 26.48999977
19.54000092 10.00000000 52.97999954
17.47999954 16.38999939 40.84000015
12.10000038 4.84999990 13.52999973
10.93000031 15.85999966 13.14999962
16.97999954 4.38000011 40.09999847
3 1 6 5
3 4 6 1
3 5 6 3
3 3 6 4
3 0 7 3
3 3 7 2
3 1 7 0
3 2 7 1
3 0 8 1
3 1 8 4
3 3 8 0
3 4 8 3
3 5 9 1
3 1 9 2
3 3 9 5
3 2 9 3