ply
format ascii 1.0
comment https://github.com/mikedh/trimesh
element vertex 10
property float x
property float y
property float z
element face 16
property list uchar int vertex_indices
end_header
12.60000038 16.39999962 0.00000000
29.50000000 16.39999962 27.15999985
16.89999962 0.00000000 27.15999985
4.30000019 16.39999962 27.15999985
16.89999962 32.79999924 27.15999985
21.20000076 16.39999962 54.31999969
18.05999947 18.03000069 36.88000107
16.80999947 7.63000011 15.22999954
15.52999973 16.23999977 17.64999962
18.54000092 9.35999966 40.41999817
3 1 6 5
3 4 6 1
3 5 6 3
3 3 6 4
3 0 7 3
3 3 7 2
3 1 7 0
3 2 7 1
3 0 8 1
3 1 8 4
3 3 8 0
3 4 8 3
3 5 9 1
3 1 9 2
3 3 9 5
3 2 9 3